<svg width="27" height="28" viewBox="0 0 27 28" fill="none" xmlns="http://www.w3.org/2000/svg">
<path d="M7.89984 0.666687H19.0998C23.3665 0.666687 26.8332 4.13335 26.8332 8.40002V19.6C26.8332 21.651 26.0184 23.618 24.5681 25.0683C23.1178 26.5186 21.1508 27.3334 19.0998 27.3334H7.89984C3.63317 27.3334 0.166504 23.8667 0.166504 19.6V8.40002C0.166504 6.34901 0.981264 4.38201 2.43154 2.93173C3.88183 1.48145 5.84883 0.666687 7.89984 0.666687ZM7.63317 3.33335C6.36013 3.33335 5.13923 3.83907 4.23906 4.73924C3.33888 5.63942 2.83317 6.86031 2.83317 8.13335V19.8667C2.83317 22.52 4.97984 24.6667 7.63317 24.6667H19.3665C20.6395 24.6667 21.8604 24.161 22.7606 23.2608C23.6608 22.3606 24.1665 21.1397 24.1665 19.8667V8.13335C24.1665 5.48002 22.0198 3.33335 19.3665 3.33335H7.63317ZM20.4998 5.33335C20.9419 5.33335 21.3658 5.50895 21.6783 5.82151C21.9909 6.13407 22.1665 6.55799 22.1665 7.00002C22.1665 7.44205 21.9909 7.86597 21.6783 8.17853C21.3658 8.49109 20.9419 8.66669 20.4998 8.66669C20.0578 8.66669 19.6339 8.49109 19.3213 8.17853C19.0088 7.86597 18.8332 7.44205 18.8332 7.00002C18.8332 6.55799 19.0088 6.13407 19.3213 5.82151C19.6339 5.50895 20.0578 5.33335 20.4998 5.33335ZM13.4998 7.33335C15.2679 7.33335 16.9636 8.03573 18.2139 9.28597C19.4641 10.5362 20.1665 12.2319 20.1665 14C20.1665 15.7681 19.4641 17.4638 18.2139 18.7141C16.9636 19.9643 15.2679 20.6667 13.4998 20.6667C11.7317 20.6667 10.036 19.9643 8.78579 18.7141C7.53555 17.4638 6.83317 15.7681 6.83317 14C6.83317 12.2319 7.53555 10.5362 8.78579 9.28597C10.036 8.03573 11.7317 7.33335 13.4998 7.33335ZM13.4998 10C12.439 10 11.4216 10.4214 10.6714 11.1716C9.92126 11.9217 9.49984 12.9392 9.49984 14C9.49984 15.0609 9.92126 16.0783 10.6714 16.8284C11.4216 17.5786 12.439 18 13.4998 18C14.5607 18 15.5781 17.5786 16.3283 16.8284C17.0784 16.0783 17.4998 15.0609 17.4998 14C17.4998 12.9392 17.0784 11.9217 16.3283 11.1716C15.5781 10.4214 14.5607 10 13.4998 10Z" fill="white"/>
</svg>
