<svg width="32" height="32" viewBox="0 0 32 32" fill="none" xmlns="http://www.w3.org/2000/svg">
<path fill-rule="evenodd" clip-rule="evenodd" d="M7.6442 2.72399C9.26686 1.11066 11.9389 1.39732 13.2975 3.21332L14.9802 5.45865C16.0869 6.93599 15.9882 8.99999 14.6749 10.3053L14.3575 10.6227C14.3215 10.7559 14.3179 10.8957 14.3469 11.0307C14.4309 11.5747 14.8855 12.7267 16.7895 14.62C18.6935 16.5133 19.8535 16.9667 20.4055 17.052C20.5446 17.08 20.6883 17.0759 20.8255 17.04L21.3695 16.4987C22.5375 15.3387 24.3295 15.1213 25.7749 15.9067L28.3215 17.2933C30.5042 18.4773 31.0549 21.4427 29.2682 23.22L27.3735 25.1027C26.7762 25.696 25.9735 26.1907 24.9949 26.2827C22.5815 26.508 16.9589 26.22 11.0482 20.344C5.5322 14.8587 4.47353 10.0747 4.33887 7.71732C4.2722 6.52532 4.83487 5.51732 5.5522 4.80532L7.6442 2.72399ZM11.6975 4.41199C11.0215 3.50932 9.76287 3.43732 9.05353 4.14266L6.9602 6.22265C6.5202 6.65999 6.30953 7.14265 6.3362 7.60399C6.44287 9.47732 7.2962 13.7933 12.4589 18.9267C17.8749 24.3107 22.8762 24.472 24.8095 24.2907C25.2042 24.2547 25.5962 24.0493 25.9629 23.6853L27.8562 21.8013C28.6269 21.036 28.4575 19.6413 27.3669 19.0493L24.8202 17.664C24.1162 17.2827 23.2922 17.408 22.7802 17.9173L22.1735 18.5213L21.4669 17.812C22.1735 18.5213 22.1722 18.5227 22.1709 18.5227L22.1695 18.5253L22.1655 18.5293L22.1562 18.5373L22.1362 18.556C22.0799 18.6082 22.0193 18.6555 21.9549 18.6973C21.8482 18.768 21.7069 18.8467 21.5295 18.912C21.1695 19.0467 20.6922 19.1187 20.1029 19.028C18.9469 18.8507 17.4149 18.0627 15.3789 16.0387C13.3442 14.0147 12.5495 12.492 12.3709 11.3373C12.2789 10.748 12.3522 10.2707 12.4882 9.91066C12.563 9.70808 12.6702 9.51896 12.8055 9.35065L12.8482 9.30399L12.8669 9.28399L12.8749 9.27599L12.8789 9.27199L12.8815 9.26932L13.2655 8.88799C13.8362 8.31865 13.9162 7.37599 13.3789 6.65732L11.6975 4.41199Z" fill="white"/>
</svg>
