<svg width="33" height="32" viewBox="0 0 33 32" fill="none" xmlns="http://www.w3.org/2000/svg">
<path d="M3.1665 16C3.1665 8.64002 9.13984 2.66669 16.4998 2.66669C23.8598 2.66669 29.8332 8.64002 29.8332 16C29.8332 23.36 23.8598 29.3334 16.4998 29.3334C9.13984 29.3334 3.1665 23.36 3.1665 16Z" stroke="white" stroke-width="1.5" stroke-linecap="round" stroke-linejoin="round"/>
<path d="M12.0063 20.4134C14.913 19.64 17.993 19.96 20.673 21.3334" stroke="white" stroke-width="1.5" stroke-linecap="round" stroke-linejoin="round"/>
<path d="M10.5 16.0934C11.9667 15.6 13.54 15.3334 15.1667 15.3334C17.86 15.3334 20.3933 16.0667 22.5667 17.3334" stroke="white" stroke-width="1.5" stroke-linecap="round" stroke-linejoin="round"/>
<path d="M9.83301 11.88C11.673 11.0934 13.6997 10.6667 15.833 10.6667C19.0463 10.6667 22.033 11.6534 24.4997 13.3334" stroke="white" stroke-width="1.5" stroke-linecap="round" stroke-linejoin="round"/>
</svg>
