<svg width="49" height="50" viewBox="0 0 49 50" fill="none" xmlns="http://www.w3.org/2000/svg">
<path d="M24.15 27.8L14.35 37.6C13.9833 37.9667 13.5167 38.15 12.95 38.15C12.3833 38.15 11.9167 37.9667 11.55 37.6C11.1833 37.2333 11 36.7667 11 36.2C11 35.6333 11.1833 35.1667 11.55 34.8L21.35 25L11.55 15.2C11.1833 14.8333 11 14.3667 11 13.8C11 13.2333 11.1833 12.7667 11.55 12.4C11.9167 12.0333 12.3833 11.85 12.95 11.85C13.5167 11.85 13.9833 12.0333 14.35 12.4L24.15 22.2L33.95 12.4C34.3167 12.0333 34.7833 11.85 35.35 11.85C35.9167 11.85 36.3833 12.0333 36.75 12.4C37.1167 12.7667 37.3 13.2333 37.3 13.8C37.3 14.3667 37.1167 14.8333 36.75 15.2L26.95 25L36.75 34.8C37.1167 35.1667 37.3 35.6333 37.3 36.2C37.3 36.7667 37.1167 37.2333 36.75 37.6C36.3833 37.9667 35.9167 38.15 35.35 38.15C34.7833 38.15 34.3167 37.9667 33.95 37.6L24.15 27.8Z" fill="white"/>
</svg>
